# xmcd CD database file
#
# Track frame offsets:
#	150
#	18817
#	44762
#	59952
#	76897
#	92627
#	111030
#	131492
#	155165
#	176820
#	201660
#	221260
#	242267
#	268170
#
# Disc length: 3837 seconds
#
# Revision: 0
# Processed by: cddbd v1.5.2PL0 Copyright (c) Steve Scherf et al.
# Submitted via: CDex 1.51
#
DISCID=cb0efb0e
DTITLE=Bobby "Blue" Bland - Best Blues Masters
DYEAR=1900
DGENRE=Blues
TTITLE0=Members Only
TTITLE1=Sunday Morning Love
TTITLE2=After All
TTITLE3=Second Hand Heart
TTITLE4=Spending My Life With You
TTITLE5=Let's Part As Friends
TTITLE6=Kiss Me To The Music
TTITLE7=You've Got To Hurt Before You Heal
TTITLE8=I'm Not Ashamed To Sing The Blues
TTITLE9=Hurtin' Love
TTITLE10=I Just Won't Be Your Fool Anymore
TTITLE11=I Can Take YOu To Heaven Tonight
TTITLE12=Somewhere Between Right and Wrong
TTITLE13=God Bless The Child That's Dot His Own
EXTD=
EXTT0=
EXTT1=
EXTT2=
EXTT3=
EXTT4=
EXTT5=
EXTT6=
EXTT7=
EXTT8=
EXTT9=
EXTT10=
EXTT11=
EXTT12=
EXTT13=
PLAYORDER=
